<?xml version="1.0" encoding="UTF-8" standalone="no"?>
<!DOCTYPE svg PUBLIC "-//W3C//DTD SVG 1.1//EN" "http://www.w3.org/Graphics/SVG/1.1/DTD/svg11.dtd">
<svg width="100%" height="100%" viewBox="0 0 435 434" version="1.1" xmlns="http://www.w3.org/2000/svg" xmlns:xlink="http://www.w3.org/1999/xlink" xml:space="preserve" xmlns:serif="http://www.serif.com/" style="fill-rule:evenodd;clip-rule:evenodd;stroke-linejoin:round;stroke-miterlimit:2;">
    <g transform="matrix(1,0,0,1,-124.095702,-36.941993)">
        <g transform="matrix(4.166667,0,0,4.166667,553.850833,310.821667)">
            <path d="M0,-27.751C1.643,-32.618 1.31,-36.79 -0.992,-40.151C-3.04,-43.14 -6.175,-44.846 -8.971,-46.12L-10.307,-46.729L-11.693,-46.24C-13.217,-45.702 -21.821,-42.918 -29.816,-40.351L-29.271,-47.249C-28.876,-52.719 -30.396,-57.351 -33.665,-60.645C-37.276,-64.281 -42.661,-66.02 -49.245,-65.692L-49.281,-65.69C-57.538,-65.263 -66.889,-61.562 -75.609,-55.27C-82.407,-50.365 -88.088,-44.189 -92.493,-36.913C-97.262,-29.037 -100.561,-19.815 -102.297,-9.505C-104.805,5.391 -101.682,18.58 -93.502,27.63C-87.341,34.446 -78.727,38.269 -69.654,38.269C-69.097,38.269 -68.538,38.254 -67.979,38.225C-62.357,37.934 -56.93,36.242 -51.851,33.198C-46.504,29.994 -41.816,25.433 -37.917,19.643L-37.208,18.582L-37.222,18.573C-37.098,18.382 -36.957,18.162 -36.795,17.91L-36.569,17.501C-36.556,17.475 -35.255,14.892 -32.764,14.189C-32.042,13.986 -31.34,13.865 -30.677,13.831C-28.929,13.738 -27.55,14.271 -26.585,14.729C-26.287,14.881 -26.011,15.018 -25.788,15.125C-25.02,15.512 -24.275,15.681 -23.518,15.642C-22.375,15.582 -21.331,15.033 -20.654,14.136C-20.221,13.563 -19.749,12.597 -19.918,11.223C-19.833,6.886 -19.243,3.969 -18.164,2.552C-17.089,1.14 -15.877,0.419 -14.458,0.345C-14.147,0.33 -13.816,0.344 -13.479,0.391L-12.863,0.476L-12.252,0.352C-10.414,-0.022 -8.811,-1.724 -9.286,-4.278C-9.843,-8.367 -9.591,-10.695 -8.358,-12.828C-7.224,-14.437 -5.446,-15.649 -4.111,-15.718C-4.015,-15.722 -3.921,-15.721 -3.834,-15.714C-3.609,-15.692 -3.387,-15.687 -3.177,-15.699C-1.951,-15.763 -0.862,-16.356 -0.19,-17.326C0.522,-18.353 0.658,-19.556 0.2,-20.942C-0.638,-23.511 -0.702,-25.674 0,-27.751" style="fill:rgb(0,101,46);fill-rule:nonzero;"/>
        </g>
        <g transform="matrix(4.166667,0,0,4.166667,545.273333,361.372917)">
            <path d="M0,-51.57C-1.87,-54.3 -4.817,-55.896 -7.452,-57.096L-8.311,-57.488L-9.202,-57.174C-10.929,-56.564 -21.16,-53.261 -29.192,-50.685L-28.496,-59.473C-28.129,-64.573 -29.522,-68.86 -32.526,-71.885C-35.876,-75.26 -40.934,-76.873 -47.153,-76.552L-47.156,-76.552C-55.166,-76.137 -64.27,-72.523 -72.792,-66.375C-79.45,-61.571 -85.015,-55.521 -89.33,-48.392C-94.016,-40.653 -97.259,-31.581 -98.968,-21.429C-101.411,-6.92 -98.398,5.893 -90.483,14.65C-84.206,21.596 -75.278,25.303 -65.988,24.822C-60.58,24.542 -55.356,22.912 -50.461,19.978C-45.276,16.871 -40.724,12.439 -36.931,6.806L-36.935,6.803C-36.755,6.544 -36.45,6.069 -35.822,5.093L-35.735,4.958L-35.668,4.812C-35.659,4.794 -34.158,1.708 -31.059,0.833C-30.245,0.603 -29.447,0.467 -28.685,0.428C-26.65,0.322 -25.08,0.924 -23.935,1.466C-23.648,1.613 -23.382,1.745 -23.145,1.859C-22.583,2.142 -22.054,2.266 -21.527,2.239C-20.768,2.2 -20.075,1.836 -19.627,1.243C-19.318,0.833 -19.004,0.153 -19.149,-0.837C-19.112,-2.926 -18.974,-7.929 -17.134,-10.346C-15.835,-12.052 -14.264,-12.965 -12.466,-13.058C-12.07,-13.079 -11.658,-13.06 -11.243,-13.002L-10.845,-12.947L-10.453,-13.026C-9.262,-13.268 -8.141,-14.362 -8.495,-16.191L-8.499,-16.207C-9.107,-20.648 -8.806,-23.218 -7.388,-25.641C-6.024,-27.603 -3.868,-29.031 -2.123,-29.121C-1.964,-29.13 -1.806,-29.127 -1.654,-29.113C-1.494,-29.098 -1.337,-29.095 -1.186,-29.102C-0.364,-29.145 0.362,-29.537 0.807,-30.178C1.522,-31.208 1.165,-32.286 1.048,-32.64L1.034,-32.684C0.107,-35.525 0.045,-37.94 0.837,-40.286C2.347,-44.758 2.066,-48.554 0,-51.57" style="fill:white;fill-rule:nonzero;"/>
        </g>
        <g transform="matrix(4.166667,0,0,4.166667,247.67,456.790833)">
            <path d="M0,-87.424C-12.244,-78.591 -21.781,-64.592 -25.257,-43.953C-32.461,-1.171 10.881,14.839 32.564,-17.364L26.005,-21.916C25.23,-21.357 24.572,-20.864 24.347,-20.639L24.288,-20.581L24.223,-20.528C21.59,-18.367 17.695,-15.646 14.093,-14.955C13.338,-14.81 12.569,-14.716 11.807,-14.677C3.419,-14.242 -4.106,-20.264 -5.697,-28.683C-6.844,-34.755 -4.69,-40.998 -0.073,-44.992C0.22,-45.279 0.486,-45.526 0.737,-45.745L-2.942,-46.062C-3.569,-46.044 -4.155,-46.291 -4.555,-46.747L-4.609,-46.808L-4.656,-46.874C-5.028,-47.388 -5.102,-48.043 -4.896,-48.628C-5.134,-48.416 -5.375,-48.203 -5.621,-47.987L-5.652,-47.96C-7.038,-46.802 -8.614,-46.145 -10.208,-46.063C-10.806,-46.032 -11.406,-46.082 -11.99,-46.213L-12.021,-46.22L-12.052,-46.229C-12.961,-46.467 -13.589,-47.085 -13.731,-47.883C-13.861,-48.61 -13.563,-49.314 -12.931,-49.784C-11.686,-50.792 -10.444,-51.949 -9.253,-53.209C-9.002,-53.48 -8.757,-53.767 -8.505,-54.063C-8.553,-54.057 -8.6,-54.048 -8.648,-54.046C-9.396,-54.007 -10.086,-54.395 -10.449,-55.058L-10.515,-55.178L-10.561,-55.307C-10.781,-55.928 -10.653,-56.501 -10.583,-56.809C-10.577,-56.836 -10.571,-56.861 -10.567,-56.883C-10.163,-59.143 -9.729,-61.431 -9.276,-63.685C-9.224,-64.235 -9.014,-64.721 -8.662,-65.098L-8.626,-65.137L-8.587,-65.173C-8.199,-65.541 -7.758,-65.74 -7.278,-65.764C-7.208,-65.768 -7.138,-65.768 -7.068,-65.764L-5.914,-65.868C-5.016,-66.462 -4.2,-67.043 -3.407,-67.607C-2.307,-68.389 -1.171,-69.198 0.173,-70.034L0.209,-70.056L0.246,-70.077C0.253,-70.081 0.261,-70.086 0.269,-70.09C0.559,-71.047 0.853,-72.003 1.151,-72.957L1.176,-73.038L1.209,-73.116C1.348,-73.442 1.511,-73.713 1.709,-73.945L1.748,-73.992L1.791,-74.035C2.155,-74.406 2.65,-74.626 3.184,-74.653C3.4,-74.664 3.616,-74.645 3.828,-74.595L3.904,-74.584C9.283,-77.849 15.311,-81.353 20.536,-84.251L20.766,-84.378L21.023,-84.433C21.133,-84.456 21.245,-84.471 21.354,-84.476C22.055,-84.512 22.708,-84.173 23.06,-83.591C23.464,-82.924 23.406,-82.1 22.898,-81.272L22.75,-81.032L22.533,-80.851C22.174,-80.552 22.167,-79.724 22.505,-79.144C22.686,-78.927 22.849,-78.865 23.161,-78.881C23.38,-78.892 23.646,-78.949 23.95,-79.05C24.899,-79.365 25.837,-79.548 26.738,-79.595C29.854,-79.756 32.586,-78.328 34.638,-75.464C36.086,-73.444 36.69,-71.383 36.715,-71.296L36.735,-71.225C37.639,-71.513 38.676,-71.845 39.798,-72.204L40.617,-82.552C41.866,-99.869 20.569,-102.263 0,-87.424" style="fill:rgb(245,130,50);fill-rule:nonzero;"/>
        </g>
        <g transform="matrix(4.166667,0,0,4.166667,198.228333,223.234583)">
            <path d="M0,7.629C-0.362,7.879 -0.012,8.092 0.26,8.164C2.027,8.56 3.733,7.916 5.091,6.781C7.046,5.064 8.967,3.292 10.789,1.43C11.424,0.795 12.126,0.526 12.912,0.162C13.231,-0.012 13.032,-0.265 12.781,-0.384C11.268,-0.931 9.084,-0.539 7.702,0.209C6.129,1.151 5.125,2.676 3.896,4.004C2.677,5.294 1.378,6.516 0,7.629" style="fill:rgb(245,130,50);fill-rule:nonzero;"/>
        </g>
        <g transform="matrix(4.166667,0,0,4.166667,510.179167,373.538333)">
            <path d="M0,-57.935C-2.865,-56.925 -28.404,-48.733 -29.459,-48.43C-30.768,-47.965 -30.49,-47.066 -30.17,-45.657C-28.752,-39.426 -28.474,-33.377 -31.562,-27.281C-33.768,-23.618 -37.025,-19.761 -40.429,-17.214C-40.616,-18.03 -40.82,-18.874 -40.992,-19.575C-37.162,-22.551 -33.899,-26.688 -32.004,-31.159C-29.988,-36.606 -31.274,-41.315 -32.28,-46.503C-32.707,-48.706 -32.582,-49.268 -31.372,-49.738C-30.391,-50.119 -27.96,-50.845 -27.96,-50.845C-27.96,-50.845 -30.613,-60.056 -38.499,-57.44C-39.746,-57.026 -41.021,-56.993 -41.928,-58.182C-42.694,-59.372 -42.741,-61.224 -41.591,-62.184C-41.491,-62.345 -41.239,-62.851 -41.616,-62.771C-47.12,-59.718 -53.343,-56.09 -58.722,-52.815L-59.524,-52.928C-59.669,-52.975 -59.85,-52.973 -59.963,-52.858C-60.059,-52.744 -60.131,-52.607 -60.19,-52.47C-60.494,-51.495 -60.794,-50.518 -61.091,-49.54C-61.148,-49.353 -61.206,-49.08 -61.361,-48.95C-61.536,-48.826 -61.715,-48.704 -61.902,-48.599C-64.286,-47.116 -65.966,-45.744 -68.322,-44.216L-70.127,-44.052C-70.214,-44.106 -70.326,-44.008 -70.386,-43.952C-70.502,-43.828 -70.545,-43.643 -70.551,-43.477C-71.011,-41.191 -71.447,-38.899 -71.857,-36.603C-71.894,-36.397 -71.995,-36.098 -71.922,-35.896C-71.851,-35.765 -71.715,-35.745 -71.603,-35.843L-68.928,-37.498C-69.201,-38.36 -69.162,-39.404 -68.514,-40.075C-67.93,-40.589 -67.102,-40.832 -66.344,-40.576C-66.247,-40.542 -66.144,-40.593 -66.076,-40.662C-65.563,-41.337 -65.342,-42.003 -64.455,-42.29C-63.663,-42.484 -62.848,-42.144 -62.366,-41.472C-62.27,-41.396 -62.137,-41.36 -62.021,-41.407C-60.641,-42.233 -59.151,-42.721 -58.103,-41.128C-57.309,-39.672 -57.435,-37.892 -58.948,-36.967C-59.146,-36.877 -59.398,-36.79 -59.548,-36.625C-59.638,-36.501 -59.645,-36.323 -59.631,-36.175C-59.4,-35.447 -59.512,-34.619 -59.95,-34.004C-60.224,-33.664 -60.643,-33.336 -61.105,-33.386C-61.205,-33.376 -61.293,-33.303 -61.358,-33.23C-61.457,-33.108 -61.453,-32.975 -61.434,-32.825C-61.339,-32.073 -61.524,-31.274 -62.028,-30.707C-62.497,-30.27 -63.263,-30.331 -63.838,-30.482L-66.207,-28.177C-66.273,-28.098 -66.309,-27.983 -66.244,-27.893C-66.168,-27.806 -66.041,-27.787 -65.933,-27.806L-61.198,-27.397C-60.953,-27.323 -60.742,-27.483 -60.641,-27.697C-59.314,-30.725 -57.289,-33.518 -54.783,-35.638C-52.945,-37.112 -50.952,-38.647 -48.728,-39.463C-48.467,-39.508 -47.962,-39.514 -47.782,-39.729C-47.679,-39.922 -47.703,-40.143 -47.653,-40.35C-47.169,-42.404 -45.56,-44.063 -43.428,-44.085C-40.643,-43.859 -38.951,-40.898 -39.627,-38.249C-40.167,-36.488 -41.109,-35.066 -42.443,-33.83C-43.881,-32.581 -45.821,-31.88 -47.713,-31.926C-48.592,-31.982 -50.522,-31.94 -50.954,-32.885C-51.062,-33.113 -51.392,-33.036 -51.51,-33.017C-51.699,-32.986 -51.745,-32.8 -51.893,-32.507C-53.072,-30.176 -55.19,-28.467 -57.309,-27.052C-58.049,-26.574 -58.795,-26.122 -59.542,-25.681C-59.541,-25.667 -59.541,-25.653 -59.54,-25.638C-60.31,-25.149 -60.935,-24.692 -61.89,-23.753C-65.937,-20.277 -68.068,-14.721 -66.99,-9.018C-65.402,-0.616 -57.455,4.916 -49.241,3.339C-46.117,2.739 -42.495,0.268 -39.89,-1.87C-39.46,-2.298 -38.226,-3.187 -36.856,-4.158L-29.355,0.943C-29.355,0.943 -27.496,-3.099 -23.273,-4.29C-19.311,-5.409 -16.483,-4.459 -14.478,-3.505C-14.189,-3.357 -13.922,-3.224 -13.687,-3.111C-13.048,-2.783 -12.923,-3.056 -13.052,-3.583C-13.051,-3.595 -13.048,-3.607 -13.048,-3.619C-13.001,-6.355 -12.838,-11.656 -10.564,-14.643C-8.169,-17.789 -5.187,-18.565 -2.497,-18.191C-2.219,-18.247 -2.341,-18.586 -2.369,-18.789C-2.996,-23.344 -2.817,-26.603 -0.928,-29.785C0.791,-32.299 3.951,-34.592 6.983,-34.314C7.484,-34.268 7.358,-34.568 7.25,-34.9C6.414,-37.463 5.918,-40.549 7.06,-43.931C9.891,-52.312 5.097,-55.613 0,-57.935M-55.272,-51.357C-55.588,-51.082 -56.222,-50.437 -57.097,-49.781C-57.646,-49.307 -58.356,-48.874 -58.976,-48.691C-59.138,-48.618 -59.418,-48.723 -59.394,-48.904C-59.333,-49.362 -59.1,-50.226 -58.975,-50.652C-58.932,-50.973 -58.657,-51.099 -58.359,-51.009C-57.446,-50.995 -56.228,-51.756 -55.264,-51.911C-54.963,-51.959 -55.05,-51.55 -55.272,-51.357M-46.896,-48.706C-47.47,-48.73 -49.975,-48.837 -49.66,-49.636C-49.644,-49.777 -49.449,-49.828 -49.337,-49.853C-47.858,-50.051 -46.595,-50.199 -45.255,-50.956C-44.887,-51.179 -44.813,-51.487 -45.284,-51.579C-46.172,-51.723 -47.074,-51.796 -47.928,-52.106C-48.507,-52.33 -50.405,-53.243 -48.888,-53.384C-45.661,-53.229 -42.435,-53.053 -39.21,-52.857C-38.647,-52.809 -38.924,-52.424 -39.255,-52.239C-41.685,-50.79 -43.902,-48.737 -46.896,-48.706" style="fill:rgb(0,101,46);fill-rule:nonzero;"/>
        </g>
        <g transform="matrix(4.166667,0,0,4.166667,402.129167,289.139167)">
            <path d="M0,-25.938C0,-25.938 25.406,-34.257 25.792,-34.361C26.178,-34.465 26.739,-33.927 26.102,-33.656C25.464,-33.386 10.896,-28.216 10.105,-27.818C9.315,-27.419 9.624,-27.134 10.498,-26.955C14.528,-26.131 22.705,-24.582 26.081,-19.889C26.612,-19.15 26.083,-19.289 25.508,-19.804C23.006,-22.048 18.531,-24.286 8.98,-25.869C7.89,-26.049 6.787,-26.039 7.571,-25.391C11.853,-21.847 19.032,-15.066 20.564,-7.029C20.768,-5.958 20.298,-6.288 20.073,-7.01C18.634,-11.612 14.33,-18.249 6.659,-23.708C6.158,-24.064 5.153,-24.201 5.738,-23.419C6.323,-22.638 11.114,-12.463 10.84,-1.218C10.808,0.124 10.403,-1.071 10.359,-1.604C10.315,-2.138 8.9,-14.057 4.103,-22.052C3.617,-22.861 3.46,-22.215 3.615,-21.862C3.769,-21.51 5.375,-4.244 0.094,7.723C-0.261,8.527 -0.339,7.626 -0.114,6.932C1.941,0.616 4.202,-17.369 -0.377,-24.44C-0.911,-25.264 -0.786,-25.587 0,-25.938" style="fill:white;fill-rule:nonzero;"/>
        </g>
    </g>
</svg>
