<?xml version="1.0" encoding="UTF-8" standalone="no"?>
<!DOCTYPE svg PUBLIC "-//W3C//DTD SVG 1.1//EN" "http://www.w3.org/Graphics/SVG/1.1/DTD/svg11.dtd">
<svg width="100%" height="100%" viewBox="0 0 4813 6585" version="1.1" xmlns="http://www.w3.org/2000/svg" xmlns:xlink="http://www.w3.org/1999/xlink" xml:space="preserve" xmlns:serif="http://www.serif.com/" style="fill-rule:evenodd;clip-rule:evenodd;stroke-linejoin:round;stroke-miterlimit:2;">
    <g transform="matrix(1,0,0,1,-718.516667,-874.591667)">
        <g transform="matrix(4.166667,0,0,4.166667,0,0)">
            <g transform="matrix(-1,0,0,1,1500,-425.06)">
                <rect x="172.444" y="634.962" width="1155.112" height="1155.136" style="fill:rgb(236,31,39);"/>
            </g>
        </g>
        <g transform="matrix(4.166667,0,0,4.166667,0,0)">
            <g transform="matrix(1,0,0,1,345.5818,1428.0208)">
                <path d="M0,259.671L0,210.623C-6.373,213.834 -15.037,215.35 -22.144,215.35C-37.189,215.35 -42.231,209.082 -42.231,188.713L-42.231,112.882L0,112.882L0,67.069L-42.691,67.069L-42.691,-6.704L-102.541,9.341L-102.541,67.069L-132.131,67.069L-132.131,112.882L-102.541,112.882L-102.541,203.589C-102.541,251.427 -87.988,266.375 -42.691,266.375C-28.412,266.375 -13.053,263.987 0,259.671" style="fill:white;fill-rule:nonzero;"/>
            </g>
        </g>
        <g transform="matrix(4.166667,0,0,4.166667,0,0)">
            <g transform="matrix(1,0,0,1,486.5908,1630.7889)">
                <path d="M0,-82.365L0,-140.432C-29.614,-141.642 -47.33,-124.273 -56.405,-104.38L-56.849,-104.38C-55.26,-114.972 -54.897,-128.718 -54.897,-135.705L-111.261,-135.705L-111.261,59.277L-51.299,59.277L-51.299,-23.096C-51.299,-72.991 -32.01,-89.424 0,-82.365" style="fill:white;fill-rule:nonzero;"/>
            </g>
        </g>
        <g transform="matrix(4.166667,0,0,4.166667,0,0)">
            <g transform="matrix(1,0,0,1,538.3298,1690.0581)">
                <path d="M0,-285.987C-20.103,-285.987 -36.649,-270.329 -36.649,-250.709C-36.649,-231.139 -20.103,-215.367 0,-215.367C20.539,-215.367 36.713,-231.429 36.713,-250.709C36.713,-270.329 20.539,-285.987 0,-285.987M29.969,-194.974L-29.937,-194.974L-29.937,0L29.969,0L29.969,-194.974Z" style="fill:white;fill-rule:nonzero;"/>
            </g>
        </g>
        <g transform="matrix(4.166667,0,0,4.166667,0,0)">
            <g transform="matrix(1,0,0,1,721.8329,1693.1958)">
                <path d="M0,-105.582C0,-71.837 -14.158,-48.233 -34.656,-48.233C-52.84,-48.233 -61.504,-63.569 -61.504,-96.111C-61.504,-139.69 -43.724,-154.614 -20.531,-154.614C-12.222,-154.614 -5.954,-153.5 0,-152.29L0,-105.582ZM60.003,0.791L60.003,-196.175C37.907,-199.749 14.65,-202.484 -15.795,-202.484C-87.528,-202.484 -125.032,-153.783 -125.032,-89.891C-125.032,-31.389 -99.419,1.565 -52.041,1.565C-27.993,1.565 -7.89,-10.188 1.638,-29.429L2.436,-29.429C0.839,-20.014 0.419,-10.963 0.419,-1.186L0.419,5.107C0.419,33.769 -15.795,46.297 -50.113,46.297C-67.804,46.297 -92.32,40.376 -111.625,31.406L-114.02,87.085C-96.604,92.603 -74.5,96.902 -52.46,96.902C36.326,96.902 60.003,51.807 60.003,0.791" style="fill:white;fill-rule:nonzero;"/>
            </g>
        </g>
        <g transform="matrix(4.166667,0,0,4.166667,0,0)">
            <g transform="matrix(-1,0,0,1,1691.698,1093.677)">
                <rect x="815.892" y="309.938" width="59.914" height="286.447" style="fill:white;"/>
            </g>
        </g>
        <g transform="matrix(4.166667,0,0,4.166667,0,0)">
            <g transform="matrix(1,0,0,1,1012.91,1572.7786)">
                <path d="M0,39.552C0,58.421 -13.851,76.483 -34.366,76.483C-46.168,76.483 -53.291,69.392 -53.291,59.163C-53.291,43.086 -37.06,33.324 0,33.324L0,39.552ZM61.455,117.287C60.342,99.684 60.342,81.203 60.342,70.998L60.342,-12.61C60.342,-59.697 41.053,-82.067 -27.283,-82.067C-50.573,-82.067 -74.185,-78.098 -95.143,-71.459L-95.143,-18.071C-77.364,-27.534 -52.485,-34.197 -35.14,-34.197C-6.768,-34.197 0,-25.953 0,-9.867L0,-3.171C-59.955,-3.171 -110.455,17.19 -110.455,68.174C-110.455,99.241 -91.473,121.619 -53.291,121.619C-26.089,121.619 -2.767,108.243 5.469,89.028L5.889,89.463C4.34,97.635 4.34,107.824 4.34,117.287L61.455,117.287Z" style="fill:white;fill-rule:nonzero;"/>
            </g>
        </g>
        <g transform="matrix(4.166667,0,0,4.166667,0,0)">
            <g transform="matrix(1,0,0,1,1285.7263,1690.0599)">
                <path d="M0,-194.974L-64.69,-194.974L-87.576,-125.96C-92.764,-110.673 -95.894,-97.66 -99.443,-77.727L-100.218,-77.727C-104.913,-98.911 -108.478,-113.351 -113.254,-127.92L-136.173,-194.974L-202.404,-194.974L-133.365,0L-69.861,0L0,-194.974Z" style="fill:white;fill-rule:nonzero;"/>
            </g>
        </g>
        <g transform="matrix(4.166667,0,0,4.166667,0,0)">
            <g transform="matrix(1,0,0,1,591.8535,786.8454)">
                <path d="M0,2.767L0.032,2.767C0.944,89.424 71.418,159.39 158.268,159.39C245.538,159.39 316.319,88.762 316.537,1.533L210.18,1.533C210.148,30.526 186.648,54.001 157.647,54.001C128.638,54.001 105.13,30.526 105.09,1.533L105.017,1.533L105.017,-51.081L473.587,-51.081L473.587,-156.251L0,-156.251L0,2.767ZM-158.309,-314.617L-158.309,2.59L-158.268,2.59C-157.663,176.549 -16.465,317.384 157.639,317.384C332.09,317.384 473.531,175.984 473.587,1.533L369.078,1.533C369.078,1.71 369.094,1.896 369.094,2.09C369.094,118.546 274.701,212.915 158.284,212.915C42.005,212.915 -52.275,118.804 -52.541,2.59L-52.509,2.59L-52.509,-209.446L473.587,-209.446L473.587,-314.617L-158.309,-314.617Z" style="fill:white;"/>
            </g>
        </g>
    </g>
</svg>
